<svg width="19" height="18" viewBox="0 0 19 18" fill="none" xmlns="http://www.w3.org/2000/svg">
<path fill-rule="evenodd" clip-rule="evenodd" d="M18.8004 9.39157C18.8004 9.82378 18.45 10.1742 18.0178 10.1742H7.0616C6.62939 10.1742 6.27902 9.82378 6.27902 9.39157C6.27902 8.95936 6.62939 8.60899 7.0616 8.60899H18.0178C18.45 8.60899 18.8004 8.95936 18.8004 9.39157ZM7.0616 3.91348H18.0178C18.45 3.91348 18.8004 3.5631 18.8004 3.1309C18.8004 2.69869 18.45 2.34831 18.0178 2.34831H7.0616C6.62939 2.34831 6.27902 2.69869 6.27902 3.1309C6.27902 3.5631 6.62939 3.91348 7.0616 3.91348ZM18.0178 14.8697H7.0616C6.62939 14.8697 6.27902 15.22 6.27902 15.6522C6.27902 16.0845 6.62939 16.4348 7.0616 16.4348H18.0178C18.45 16.4348 18.8004 16.0845 18.8004 15.6522C18.8004 15.22 18.45 14.8697 18.0178 14.8697ZM1.15113 2.26614L1.58351 2.04897V7.04382C1.58351 7.47603 1.93389 7.8264 2.3661 7.8264C2.7983 7.8264 3.14868 7.47603 3.14868 7.04382V0.783142C3.14887 0.511771 3.00847 0.25967 2.77766 0.116956C2.54684 -0.0257571 2.25857 -0.0387099 2.01589 0.0827285L0.45072 0.865313C0.0638924 1.05873 -0.0929008 1.52911 0.100513 1.91593C0.293927 2.30276 0.764306 2.45955 1.15113 2.26614ZM4.69135 12.201C4.6039 11.5748 4.26474 11.0112 3.75225 10.6408C2.6967 9.8743 1.22443 10.0772 0.415503 11.1005C0.266712 11.2916 0.148865 11.5048 0.0662752 11.7325C-0.0512567 11.9995 -0.0105083 12.3097 0.171993 12.5373C0.354494 12.7649 0.648446 12.8721 0.934621 12.8154C1.2208 12.7587 1.45168 12.5476 1.53362 12.2676C1.56101 12.1925 1.59996 12.1222 1.64905 12.0592C1.93584 11.7019 2.45298 11.6334 2.82293 11.9037C2.99605 12.0261 3.11133 12.2142 3.14183 12.4241C3.16973 12.6256 3.11427 12.8298 2.98825 12.9895C2.9854 12.9929 2.98279 12.9965 2.98042 13.0003L0.17388 16.7488C-0.00349656 16.9861 -0.0316892 17.3032 0.101044 17.5681C0.233778 17.8329 0.504681 18.0001 0.800926 18H3.93126C4.36347 18 4.71385 17.6496 4.71385 17.2174C4.71385 16.7852 4.36347 16.4348 3.93126 16.4348H2.3661L4.23256 13.9374C4.61491 13.4449 4.78053 12.8181 4.69135 12.201Z" fill="#1A140F"/>
</svg>
