<svg width="24" height="24" viewBox="0 0 24 24" fill="none" xmlns="http://www.w3.org/2000/svg">
<path fill-rule="evenodd" clip-rule="evenodd" d="M10.141 7.20952C11.3721 6.02444 11.7603 4.2105 11.1221 2.62532C10.4838 1.04015 8.94694 0.00132364 7.2381 0H0.761905C0.341116 0 0 0.341116 0 0.761905V15.2381C0 15.6589 0.341116 16 0.761905 16H8.38095C10.5597 16 12.4357 14.4624 12.8634 12.326C13.2912 10.1897 12.1518 8.04834 10.141 7.20952ZM1.52381 1.52381H7.2381C8.71085 1.52381 9.90476 2.71772 9.90476 4.19048C9.90476 5.66324 8.71085 6.85714 7.2381 6.85714H1.52381V1.52381ZM8.38095 14.4762H1.52381V8.38095H8.38095C10.0641 8.38095 11.4286 9.74542 11.4286 11.4286C11.4286 13.1117 10.0641 14.4762 8.38095 14.4762Z" fill="#1A140F"/>
</svg>
