<svg width="24" height="24" viewBox="0 0 24 24" fill="none" xmlns="http://www.w3.org/2000/svg">
<path fill-rule="evenodd" clip-rule="evenodd" d="M14 17.1111C14 17.5407 13.6518 17.8889 13.2222 17.8889H0.777778C0.348223 17.8889 0 17.5407 0 17.1111C0 16.6816 0.348223 16.3333 0.777778 16.3333H13.2222C13.6518 16.3333 14 16.6816 14 17.1111ZM7 14.7778C10.4349 14.774 13.2185 11.9904 13.2222 8.55556V0.777778C13.2222 0.348223 12.874 0 12.4444 0C12.0149 0 11.6667 0.348223 11.6667 0.777778V8.55556C11.6667 11.1329 9.57733 13.2222 7 13.2222C4.42267 13.2222 2.33333 11.1329 2.33333 8.55556V0.777778C2.33333 0.348223 1.98511 0 1.55556 0C1.126 0 0.777778 0.348223 0.777778 0.777778V8.55556C0.781529 11.9904 3.56512 14.774 7 14.7778Z" fill="#1A140F"/>
</svg>
