<svg width="24" height="24" viewBox="0 0 24 24" fill="none" xmlns="http://www.w3.org/2000/svg">
<path fill-rule="evenodd" clip-rule="evenodd" d="M13.5 0.75C13.5 1.16421 13.1642 1.5 12.75 1.5H9.54094L5.54062 13.5H8.25C8.66421 13.5 9 13.8358 9 14.25C9 14.6642 8.66421 15 8.25 15H0.75C0.335786 15 0 14.6642 0 14.25C0 13.8358 0.335786 13.5 0.75 13.5H3.95906L7.95938 1.5H5.25C4.83579 1.5 4.5 1.16421 4.5 0.75C4.5 0.335786 4.83579 0 5.25 0H12.75C13.1642 0 13.5 0.335786 13.5 0.75Z" fill="#1A140F"/>
</svg>
